<?xml version="1.0" encoding="UTF-8"?><svg id="_레이어_2" xmlns="http://www.w3.org/2000/svg" viewBox="0 0 200 68.42"><defs><style>.cls-1{fill:#f9a319;}.cls-2{fill:#fff;}.cls-3{fill:#ffe8a6;}.cls-4{fill:#fdc300;}.cls-5{fill:#ff8200;}.cls-6{font-family:SuperFeel, 'Super Feel';font-size:10px;}</style></defs><g id="_격리_모드"><g><g><path class="cls-4" d="m15.18,68.17c-.91,0-1.93-.07-3.03-.21-1.11-.14-2.22-.37-3.35-.69-1.13-.31-2.22-.72-3.28-1.2-1.06-.49-1.99-1.08-2.8-1.78s-1.47-1.51-1.96-2.42c-.5-.91-.75-1.95-.75-3.11s.24-2.25.73-3.16c.49-.9,1.13-1.66,1.93-2.27.8-.61,1.72-1.07,2.74-1.39,1.03-.31,2.09-.47,3.18-.47.85,0,1.7.07,2.53.21.83.14,1.67.3,2.51.47.84.17,1.68.33,2.51.47.83.14,1.68.21,2.53.21.18,0,.4-.07.64-.2.24-.13.37-.31.37-.53,0-.12-.05-.23-.14-.32-.09-.09-.2-.17-.34-.24-.13-.07-.26-.13-.4-.18s-.24-.09-.32-.11c-1.18-.39-2.44-.68-3.78-.88-1.34-.2-2.68-.42-4.01-.66-1.33-.23-2.61-.53-3.83-.9-1.22-.37-2.3-.9-3.25-1.6-.95-.7-1.7-1.64-2.26-2.8-.56-1.17-.84-2.66-.84-4.46,0-1.93.33-3.65,1.01-5.15.67-1.5,1.57-2.82,2.71-3.95,1.14-1.13,2.46-2.09,3.96-2.88s3.09-1.44,4.75-1.94c1.67-.5,3.36-.86,5.09-1.08,1.73-.22,3.37-.34,4.94-.34.93,0,1.92.06,2.96.18s2.07.32,3.09.61,2.01.65,2.94,1.11c.93.46,1.76,1.02,2.47,1.69.71.67,1.28,1.45,1.71,2.35.43.89.64,1.92.64,3.08,0,.97-.17,1.98-.52,3-.35,1.02-.83,1.96-1.46,2.8-.63.84-1.39,1.53-2.29,2.06-.89.53-1.88.79-2.96.79-1.02,0-2.03-.08-3.05-.23-1.02-.15-2.03-.32-3.03-.5s-2.02-.35-3.03-.5c-1.02-.15-2.04-.23-3.08-.23h-.21c-.1,0-.2,0-.3.01-.1.01-.19.04-.26.08-.07.04-.1.1-.08.18.1.45.45.8,1.04,1.07.59.26,1.33.5,2.22.7.89.2,1.9.39,3,.56,1.11.17,2.24.39,3.38.65,1.15.26,2.26.6,3.34,1.02,1.08.42,2.04.96,2.9,1.63.85.67,1.53,1.5,2.04,2.48.51.99.76,2.18.76,3.58,0,1.56-.31,3.03-.91,4.4-.61,1.37-1.43,2.63-2.45,3.76-1.03,1.14-2.21,2.15-3.57,3.03s-2.77,1.64-4.27,2.26c-1.49.62-3,1.09-4.53,1.42-1.52.33-2.97.49-4.33.49Z"/><path class="cls-4" d="m76.92,34.44c-.08-.93-.23-1.86-.44-2.79-.21-.92-.51-1.8-.88-2.64-.38-.83-.85-1.56-1.43-2.19-.58-.63-1.27-1.13-2.07-1.51-.07-.03-.15-.06-.22-.09-.25.61-.55,1.21-.9,1.79-.61,1.02-1.39,1.99-2.32,2.89-.93.9-2.01,1.69-3.25,2.36-1.18.64-2.51,1.15-3.98,1.54-.01,1.21-.04,2.43-.11,3.69-.08,1.47-.12,2.92-.12,4.34v2.09c0,.8-.03,1.64-.08,2.5-.05.86-.16,1.72-.32,2.56-.16.84-.41,1.6-.73,2.27-.33.67-.75,1.21-1.28,1.62s-1.19.61-1.98.61-1.39-.22-1.9-.67c-.52-.45-.94-1-1.27-1.66-.33-.66-.56-1.37-.72-2.12-.15-.75-.23-1.44-.23-2.07,0-.87.11-1.72.34-2.55s.5-1.63.84-2.42c.34-.79.7-1.58,1.1-2.38.4-.79.76-1.58,1.1-2.38.34-.79.61-1.59.84-2.41.04-.13.05-.27.08-.41-.28,0-.56.02-.85.02-2.05,0-3.83-.24-5.36-.71-1.53-.47-2.81-1.12-3.84-1.93-1.03-.81-1.8-1.76-2.32-2.84-.4-.83-.64-1.71-.73-2.62-1.05.73-2.01,1.64-2.85,2.73-1.01,1.3-1.87,2.78-2.59,4.44-.72,1.66-1.32,3.34-1.78,5.06-.47,1.72-.81,3.4-1.04,5.06-.22,1.66-.34,3.12-.34,4.4,0,2.74.37,5.32,1.11,7.74.74,2.42,1.85,4.54,3.34,6.36,1.48,1.82,3.33,3.26,5.53,4.31,2.2,1.06,4.78,1.58,7.73,1.58,2.68,0,5.14-.44,7.36-1.31,2.22-.87,4.23-2.06,6-3.57,1.78-1.5,3.34-3.27,4.68-5.29,1.34-2.02,2.45-4.18,3.34-6.46.88-2.29,1.55-4.65,2-7.1.45-2.45.67-4.84.67-7.18,0-.85-.04-1.75-.12-2.68Z"/><g><path class="cls-3" d="m69.24,24.74c-1.22,0-2.31.21-3.28.64s-1.78,1.02-2.45,1.77c-.67.75-1.18,1.64-1.54,2.67-.25.73-.41,1.5-.48,2.32.62-.1,1.23-.23,1.8-.41,1.41-.43,2.68-1.01,3.8-1.74,1.13-.73,2.11-1.59,2.96-2.58.62-.72,1.14-1.49,1.61-2.28-.71-.26-1.51-.39-2.42-.39Z"/><path class="cls-3" d="m48.88,24.74c-.42,0-.83.03-1.23.08.12.54.27,1.07.47,1.58.47,1.18,1.17,2.21,2.11,3.1.94.89,2.11,1.59,3.5,2.1,1.03.38,2.2.62,3.49.72,0-1.05-.23-2.04-.68-2.96-.46-.92-1.07-1.73-1.84-2.41-.77-.68-1.66-1.22-2.67-1.62s-2.06-.59-3.15-.59Z"/></g><path class="cls-4" d="m83.22,68.14c-1.04,0-1.95-.19-2.73-.58s-1.45-.9-2.01-1.55c-.56-.65-1.02-1.4-1.37-2.26-.35-.85-.63-1.74-.84-2.65s-.35-1.83-.43-2.74c-.08-.91-.12-1.77-.12-2.56,0-.97.05-2.11.14-3.41.09-1.3.22-2.68.38-4.13.16-1.45.36-2.94.58-4.47s.46-3.01.72-4.45c.25-1.44.52-2.8.79-4.08.27-1.28.55-2.4.84-3.35.34-1.16.85-2.18,1.51-3.08.66-.89,1.43-1.65,2.32-2.26.88-.61,1.87-1.07,2.96-1.39,1.09-.32,2.22-.47,3.4-.47,1.06,0,1.95.13,2.67.38.72.25,1.32.57,1.8.96.48.39.87.81,1.17,1.26.31.46.56.88.78,1.27s.41.71.58.96.37.38.59.38.57-.11,1.04-.32c.47-.21,1.01-.48,1.62-.81s1.27-.68,1.98-1.07,1.44-.74,2.18-1.07c.74-.32,1.47-.59,2.19-.81.72-.21,1.39-.32,2-.32,1.48,0,2.79.27,3.92.82,1.13.55,2.1,1.29,2.93,2.21.82.92,1.5,1.99,2.04,3.18.54,1.2.98,2.45,1.31,3.76.33,1.31.57,2.63.7,3.95.13,1.32.2,2.56.2,3.72,0,1.5-.12,3.16-.35,4.98-.23,1.82-.61,3.64-1.13,5.47-.52,1.83-1.18,3.6-2,5.32-.81,1.72-1.79,3.24-2.94,4.56-1.15,1.32-2.47,2.38-3.96,3.18-1.49.8-3.18,1.2-5.08,1.2-.83,0-1.72-.11-2.65-.34-.93-.22-1.8-.56-2.59-1.02s-1.45-1.04-1.98-1.75-.79-1.56-.79-2.56c0-.61.07-1.21.21-1.8s.29-1.18.46-1.77c.2-.75.43-1.62.69-2.61.25-.99.52-2.02.79-3.11.27-1.09.54-2.21.79-3.35.25-1.15.49-2.27.7-3.35.21-1.09.38-2.11.5-3.08.12-.96.18-1.81.18-2.55,0-.24-.02-.54-.05-.88s-.11-.68-.23-1.01c-.12-.32-.31-.6-.56-.84-.25-.23-.61-.35-1.05-.35-.22,0-.52.05-.88.15-.35.1-.68.44-1.01,1.02-.33.58-.63,1.3-.91,2.15-.28.85-.55,1.79-.79,2.82-.24,1.03-.46,2.04-.65,3.03-.19,1-.37,1.93-.52,2.79-.15.86-.28,1.57-.38,2.12-.16.91-.27,1.83-.34,2.76-.06.93-.16,1.84-.31,2.76-.18,1.18-.49,2.42-.91,3.72s-1,2.49-1.72,3.57c-.72,1.08-1.61,1.97-2.65,2.67-1.05.7-2.28,1.05-3.7,1.05Z"/><path class="cls-4" d="m125.03,68.14c-1.04,0-1.95-.19-2.73-.58s-1.45-.9-2.01-1.55c-.56-.65-1.02-1.4-1.37-2.26-.35-.85-.63-1.74-.84-2.65s-.35-1.83-.43-2.74c-.08-.91-.12-1.77-.12-2.56,0-.97.05-2.11.14-3.41.09-1.3.22-2.68.38-4.13.16-1.45.36-2.94.58-4.47s.46-3.01.72-4.45c.25-1.44.52-2.8.79-4.08.27-1.28.55-2.4.84-3.35.34-1.16.85-2.18,1.51-3.08.66-.89,1.43-1.65,2.32-2.26.88-.61,1.87-1.07,2.96-1.39,1.09-.32,2.22-.47,3.4-.47,1.06,0,1.95.13,2.67.38.72.25,1.32.57,1.8.96.48.39.87.81,1.17,1.26.31.46.56.88.78,1.27s.41.71.58.96.37.38.59.38.57-.11,1.04-.32c.47-.21,1.01-.48,1.62-.81s1.27-.68,1.98-1.07,1.44-.74,2.18-1.07c.74-.32,1.47-.59,2.19-.81.72-.21,1.39-.32,2-.32,1.48,0,2.79.27,3.92.82,1.13.55,2.1,1.29,2.93,2.21s1.5,1.99,2.04,3.18c.54,1.2.98,2.45,1.31,3.76.33,1.31.57,2.63.7,3.95.13,1.32.2,2.56.2,3.72,0,1.5-.12,3.16-.35,4.98s-.61,3.64-1.13,5.47c-.52,1.83-1.18,3.6-2,5.32-.81,1.72-1.79,3.24-2.94,4.56-1.15,1.32-2.47,2.38-3.96,3.18-1.49.8-3.18,1.2-5.08,1.2-.83,0-1.72-.11-2.65-.34-.93-.22-1.8-.56-2.59-1.02s-1.45-1.04-1.98-1.75-.79-1.56-.79-2.56c0-.61.07-1.21.21-1.8s.29-1.18.46-1.77c.2-.75.43-1.62.69-2.61.25-.99.52-2.02.79-3.11.27-1.09.54-2.21.79-3.35.25-1.15.49-2.27.7-3.35.21-1.09.38-2.11.5-3.08.12-.96.18-1.81.18-2.55,0-.24-.02-.54-.05-.88s-.11-.68-.23-1.01c-.12-.32-.31-.6-.56-.84-.25-.23-.61-.35-1.05-.35-.22,0-.52.05-.88.15-.35.1-.68.44-1.01,1.02-.33.58-.63,1.3-.91,2.15-.28.85-.55,1.79-.79,2.82-.24,1.03-.46,2.04-.65,3.03s-.37,1.93-.52,2.79c-.15.86-.28,1.57-.38,2.12-.16.91-.27,1.83-.34,2.76-.06.93-.16,1.84-.31,2.76-.18,1.18-.49,2.42-.91,3.72s-1,2.49-1.72,3.57c-.72,1.08-1.61,1.97-2.65,2.67-1.05.7-2.28,1.05-3.7,1.05Z"/><path class="cls-4" d="m174.77,68.42c-1.38,0-2.66-.19-3.83-.58s-2.17-.92-3.02-1.62-1.5-1.52-1.97-2.48c-.47-.97-.7-2.02-.7-3.16,0-.85.17-1.76.52-2.73.35-.96.77-1.94,1.28-2.94.51-.99,1.06-1.98,1.66-2.96.6-.98,1.15-1.89,1.66-2.73.51-.84.93-1.6,1.28-2.27.35-.67.52-1.21.52-1.62,0-.61-.33-1.15-.98-1.62-.65-.47-1.47-.93-2.45-1.39s-2.05-.95-3.2-1.46c-1.15-.52-2.21-1.13-3.2-1.83-.99-.7-1.8-1.53-2.45-2.48-.65-.95-.98-2.11-.98-3.47,0-1.26.26-2.44.78-3.53.52-1.1,1.22-2.06,2.1-2.88.88-.82,1.93-1.47,3.14-1.94,1.21-.47,2.49-.7,3.86-.7,1.18,0,2.18.24,3.02.72.83.48,1.54,1.11,2.12,1.89.58.78,1.06,1.67,1.45,2.67.39.99.71,2,.96,3.02.25,1.02.47,2,.66,2.96.18.95.38,1.79.58,2.5.2.71.43,1.26.69,1.65s.58.51.99.37c.98-.32,1.75-.94,2.33-1.84s1.08-1.94,1.51-3.11c.43-1.17.83-2.38,1.22-3.64.39-1.26.87-2.42,1.45-3.47.58-1.06,1.31-1.93,2.19-2.61.88-.68,2.04-1.02,3.46-1.02,1.26,0,2.42.18,3.47.53,1.06.36,1.97.86,2.73,1.51.76.65,1.35,1.42,1.77,2.32.42.89.62,1.88.62,2.96s-.21,2.13-.64,3.09c-.43.97-1,1.86-1.71,2.7-.71.83-1.52,1.62-2.42,2.35-.9.73-1.84,1.42-2.8,2.07-.97.65-1.92,1.27-2.85,1.86-.93.59-1.79,1.15-2.56,1.69-.77.54-1.41,1.06-1.92,1.57s-.82,1.02-.95,1.52c-.02.1-.04.2-.05.29-.01.09-.03.19-.05.29v.3c0,.87.08,1.72.23,2.53.15.81.32,1.61.49,2.39.17.78.34,1.55.49,2.3.15.75.23,1.52.23,2.32,0,1.4-.27,2.7-.81,3.89-.54,1.19-1.28,2.21-2.22,3.08-.94.86-2.07,1.54-3.38,2.03-1.31.49-2.75.73-4.31.73Z"/></g><g><g><circle cx="55.76" cy="18.09" r="1.51"/><text class="cls-6" transform="translate(53.7 21.97) rotate(-8.02)"><tspan x="0" y="0">o</tspan></text><circle class="cls-2" cx="57.69" cy="16.46" r="1.13"/></g><g><circle cx="66.11" cy="18.09" r="1.51"/><text class="cls-6" transform="translate(64.15 21.87) rotate(-8.02)"><tspan x="0" y="0">o</tspan></text><circle class="cls-2" cx="68.04" cy="16.46" r="1.13"/></g><path class="cls-4" d="m81.15,10.2l-.11-.15c-.49-.66-1.32-.92-2.07-.74-.37.09-.69.32-.95.6-.81.88-3.33,3.75-2.78,4.49l.11.15c.56.74,4.02-.88,5.09-1.41.34-.17.65-.42.84-.75.39-.67.37-1.53-.13-2.19Z"/><path class="cls-4" d="m81.15,10.2l-.11-.15c-.49-.66-1.32-.92-2.07-.74-.37.09-.69.32-.95.6-.81.88-3.33,3.75-2.78,4.49l.11.15c.56.74,4.02-.88,5.09-1.41.34-.17.65-.42.84-.75.39-.67.37-1.53-.13-2.19Z"/><path class="cls-5" d="m73.55,3.44l-.16-.1c-.7-.43-1.57-.37-2.2.09-.31.22-.53.55-.66.91-.42,1.12-1.7,4.72-.91,5.2l.16.1c.79.48,3.4-2.32,4.2-3.2.26-.28.45-.63.5-1.01.11-.77-.23-1.56-.94-1.99Z"/><path class="cls-1" d="m64.06.05l-.18-.03c-.81-.12-1.59.28-1.98.94-.2.33-.27.71-.25,1.1.05,1.19.29,5.01,1.21,5.14l.18.03c.92.13,2.22-3.46,2.6-4.59.12-.36.16-.75.07-1.12-.2-.75-.83-1.34-1.64-1.46Z"/><path class="cls-4" d="m53.96.53l-.18.04c-.8.18-1.39.82-1.53,1.58-.07.38,0,.76.15,1.11.47,1.1,2.03,4.59,2.93,4.39l.18-.04c.9-.2.86-4.02.83-5.22-.01-.38-.11-.76-.33-1.07-.45-.63-1.24-.97-2.05-.79Z"/><path class="cls-1" d="m85.46,19.19l.05.18c.21.8-.09,1.61-.7,2.08-.3.24-.68.35-1.06.38-1.19.09-5.01.31-5.25-.58l-.05-.18c-.24-.89,3.17-2.62,4.25-3.13.34-.17.73-.25,1.11-.2.77.11,1.43.66,1.65,1.45Z"/><path class="cls-4" d="m34.51,22.23l.03-.18c.12-.82.71-1.44,1.46-1.64.37-.1.76-.06,1.12.06,1.13.38,4.73,1.68,4.6,2.6l-.03.18c-.13.92-3.95,1.16-5.14,1.21-.38.02-.77-.05-1.1-.25-.66-.4-1.06-1.17-.94-1.98Z"/><path class="cls-1" d="m37.79,12.66l.09-.16c.39-.72,1.17-1.1,1.94-1.03.38.04.73.21,1.03.45.92.76,3.84,3.23,3.4,4.04l-.09.16c-.44.81-4.1-.29-5.24-.66-.36-.12-.7-.32-.94-.62-.48-.61-.58-1.47-.19-2.19Z"/><path class="cls-5" d="m44.65,5.03l.15-.11c.66-.49,1.52-.52,2.19-.13.33.19.58.5.75.84.53,1.07,2.15,4.53,1.41,5.09l-.15.11c-.74.56-3.61-1.97-4.49-2.78-.28-.26-.51-.58-.6-.95-.19-.75.08-1.58.74-2.07Z"/></g></g></g></svg>